<?xml version="1.0" encoding="UTF-8"?>
<svg width="283px" height="202px" viewBox="0 0 283 202" version="1.1" xmlns="http://www.w3.org/2000/svg" xmlns:xlink="http://www.w3.org/1999/xlink">
    <!-- Generator: Sketch 46.2 (44496) - http://www.bohemiancoding.com/sketch -->
    <title>Path 2</title>
    <desc>Created with Sketch.</desc>
    <defs></defs>
    <g id="Page-2" stroke="none" stroke-width="1" fill="none" fill-rule="evenodd">
        <path d="M282.371094,0.86328125 C274.44401,0.9765625 266.407608,-0.11370854 258.589844,1.203125 C229.678414,6.07300089 213.32455,69.55788 192.355469,88.7890625 C171.095726,108.286816 128.786169,97.4423505 107.007813,100.398437 C92.2577816,102.400534 56.7935245,136.743839 44.9023437,143.539062 C38.6416704,147.116729 20.526593,153.911285 11.1289062,155.351562 C7.81156038,155.859975 3.92772364,153.937516 1.06640625,155.691406 C-0.589903101,156.706667 0.603923459,159.632675 1.06640625,161.519531 C1.92896275,165.038624 3.22888236,168.488412 4.98046875,171.660156 C16.98623,193.399996 20.8688749,204.640646 45.703125,201.308594 C89.0707933,195.489883 97.9787912,156.521546 127.921875,145.84375 C151.584365,137.405633 179.534723,151.697829 200.714844,138.996094 C214.735589,130.587841 223.124634,125.042226 232.476562,111.71875 C256.236009,77.8692159 234.2225,59.3621905 270.582031,27.9257812 L282.371094,0.86328125 Z" id="Path-2" fill="#C4392B"></path>
        <path d="M269.018662,11.5334544 C269.018662,8.53695566 253.732225,18.1303392 249.631535,18.7516731 C240.009898,20.2095374 225.613015,64.0675954 204.981561,93.0525989 C193.094946,109.752032 182.802999,115.158332 170.982011,116.829981 C159.161024,118.50163 115.88891,116.183474 110.593972,116.829981 C102.857066,117.774649 55.8243376,164.615126 51.5517498,166.463717 C43.0445596,170.144464 20.8792234,166.672462 21.7979915,168.169016 C28.0954317,178.426727 30.01813,185.284905 43.0445596,183.712712 C65.792413,180.967215 98.6861239,134.478854 114.392315,129.440649 C126.804116,125.459214 168.12491,135.433828 179.234621,129.440649 C190.344332,123.447471 206.96944,111.027447 216.453682,95.2228942 C232.825276,67.9412481 237.555482,38.5574613 249.631535,29.1654316 C262.556287,19.408446 269.018662,13.5311202 269.018662,11.5334544 Z" id="Path-2" fill="#F7D3AF"></path>
    </g>
</svg>