<?xml version="1.0" encoding="UTF-8"?>
<svg width="414px" height="328px" viewBox="0 0 414 328" version="1.1" xmlns="http://www.w3.org/2000/svg" xmlns:xlink="http://www.w3.org/1999/xlink">
    <!-- Generator: Sketch 46.2 (44496) - http://www.bohemiancoding.com/sketch -->
    <title>egg</title>
    <desc>Created with Sketch.</desc>
    <defs></defs>
    <g id="Page-1" stroke="none" stroke-width="1" fill="none" fill-rule="evenodd">
        <g id="egg" transform="translate(1.000000, 0.000000)">
            <path d="M5.9765625,187.589844 C2.69237318,159.942474 0.338973062,123.161645 0.1875,120.804688 C-2.342763,81.4331784 50.1147331,25.0593239 86.1065753,5.7734375 C131.743295,-18.6805651 244.930251,55.8016341 259.3125,62.3007812 C299.07893,80.2707019 326.133494,39.7459971 351.164062,72.5664062 C372.322952,100.310219 347.138288,96.8805673 376.078886,120.804688 C406.407918,145.876576 425.520323,190.001274 398.917969,225.984375 C359.980469,278.652344 244.582031,368.414062 134.898438,304.390625 C25.2148438,240.367187 12.3540166,241.277318 5.9765625,187.589844 Z" id="wite-sth" stroke="#979797" fill="#FFFFFF"></path>
            <circle id="head" stroke="#979797" fill="#F8E71C" cx="230" cy="166" r="74"></circle>
            <circle id="eye4" stroke="#979797" fill="#FFFFFF" cx="203" cy="160" r="11"></circle>
            <circle id="eye3" stroke="#979797" fill="#FFFFFF" cx="241" cy="160" r="11"></circle>
            <path d="M197.5,201.5 L253.5,201.5" id="Line" stroke="#6E6464" stroke-width="3" stroke-linecap="square"></path>
            <circle id="eye2" stroke="#979797" fill="#000000" cx="242.5" cy="161.5" r="3.5"></circle>
            <circle id="eye1" stroke="#979797" fill="#000000" cx="206.5" cy="162.5" r="3.5"></circle>
        </g>
    </g>
</svg>